<svg viewBox="0 0 24 24" xmlns="http://www.w3.org/2000/svg"><path d="M1.5 18.5c3.5 2.5 8 3.5 12 3.5 4.5 0 8.5-1.5 11-4 .5-.5.1-1.1-.5-.7-3 2-6.5 3-10.5 3-5 0-9.5-1.5-13-4-.5-.3-1 .2-.5.7h.5z" fill="#00A8E1"/><path d="M22 16.5c-.5-.7-3.5-.4-5-.2-.4 0-.5.4-.1.6 2.5 1.5 7 .5 7.5-.3.4-.7-.2-1.7-.5-2.3-.2-.4-.8-.2-.6.2.5 1.2-.2 2.5-1.3 2z" fill="#00A8E1"/><path d="M12 2C7.5 2 4 5 4 9c0 2.5 1 4.5 3 6 .3.2.6 0 .5-.3-.5-1.5-.5-3 0-4.5C8.5 7.3 10 5.5 12 5.5s3.5 1.8 4.5 4.7c.5 1.5.5 3 0 4.5-.1.3.2.5.5.3 2-1.5 3-3.5 3-6 0-4-3.5-7-8-7z" fill="#00A8E1"/></svg>
